<svg width="161" height="32" viewBox="0 0 161 32" fill="none" xmlns="http://www.w3.org/2000/svg">
<path d="M5.41685 7.31776L1.82268 4.41517C1.82268 4.41517 1.84316 1.55347 0 1.55347V5.38611L3.66585 10.1386C3.66585 10.1386 3.95256 8.3909 5.41685 7.32798V7.31776Z" fill="#D4AF77"/>
<path d="M14.2844 25.52C14.2844 25.52 13.6496 26.6749 14.0899 27.932C14.2844 28.4839 14.0694 29.1074 13.5472 29.3833L8.66278 31.9998H4.36207C4.36207 31.9998 4.07535 28.0445 8.13031 29.8126L10.7619 27.7685C9.30789 25.6733 9.09285 20.7267 13.8544 20.093C13.8544 20.093 13.0249 22.9445 15.165 24.59C14.7862 24.8659 14.479 25.2032 14.2844 25.5303V25.52Z" fill="#D4AF77"/>
<path d="M17.8271 3.21942C17.8271 3.21942 18.7794 4.60939 18.0422 7.06228L17.7555 6.70457L17.4585 6.33663C17.4687 6.39796 17.6019 6.90898 17.6531 7.53242C17.694 8.10476 17.6633 8.76908 17.4073 9.3312L17.1718 9.1268L16.8031 8.83041C16.8031 8.83041 16.8748 9.15746 16.9363 9.63782C17.0182 10.2613 17.0796 11.1607 16.9772 11.9578C16.9772 11.9578 16.5676 11.5899 16.0044 11.1607C15.8611 11.0482 15.6973 10.9256 15.5334 10.8029C15.5334 10.8029 15.6153 11.1096 15.6973 11.5388C15.8099 12.0396 15.902 12.7244 15.8611 13.2558C15.8611 13.2558 15.7689 13.266 15.6153 13.266C15.4208 13.266 15.1033 13.2456 14.7347 13.1741C14.1101 13.0616 13.3319 12.7755 12.7072 12.1316C12.3181 11.7432 12.0007 11.222 11.7959 10.5168C11.7754 10.4554 11.7549 10.3941 11.7447 10.3226C11.714 10.1795 11.6833 10.0466 11.6525 9.89333C11.6423 9.81156 11.6321 9.74002 11.6218 9.65826C11.6218 9.65826 11.4682 9.6787 11.2122 9.6787C10.905 9.6787 10.4442 9.64804 9.93225 9.51517C9.84009 9.49473 9.75817 9.46407 9.66601 9.43341C9.63529 9.42319 9.60457 9.41297 9.56362 9.40275C9.4817 9.37209 9.38954 9.34142 9.29738 9.30054C9.18474 9.24944 9.08234 9.19834 8.96971 9.13702C8.91851 9.10636 8.86731 9.08592 8.80587 9.05525C8.70347 8.99393 8.60107 8.92239 8.49868 8.85085C8.01741 8.50335 7.56686 8.01278 7.2187 7.32801C7.06511 7.03162 6.94223 6.69435 6.82959 6.32641C6.82959 6.32641 7.17774 6.65347 8.13004 6.65347C8.63179 6.65347 11.0893 6.44906 11.4477 5.49856C11.4477 5.49856 11.4375 5.49856 11.417 5.48834C11.3863 5.48834 11.3044 5.47812 11.1917 5.47812C11.1405 5.47812 11.0893 5.47812 11.0381 5.48834C10.9357 5.48834 10.8231 5.49856 10.69 5.52922C10.5569 5.54966 10.4238 5.58033 10.2804 5.63143C10.137 5.68253 9.98345 5.75407 9.84009 5.84606C9.76841 5.88694 9.69673 5.93804 9.62505 5.98914C9.02091 5.57011 8.58059 4.97732 8.28364 4.32322L8.93899 4.72181C11.6321 4.20057 10.2497 1.68636 8.26316 2.85149L7.99693 3.46471C7.83309 2.83104 7.81261 2.16672 7.90477 1.54328C7.93549 1.27755 8.16076 1.08336 8.427 1.08336H10.2394C10.2394 1.08336 10.4545 0.889173 10.5364 0.838071C10.9562 0.511019 11.8471 0 13.1885 0C13.6083 0 14.0691 0.0511019 14.5811 0.173746C14.8883 0.245289 15.1853 0.306611 15.4617 0.357713C15.8611 0.429256 16.2195 0.480358 16.5369 0.511019H16.5984C16.8031 0.53146 17.0079 0.54168 17.182 0.5519H17.4483C18.3289 0.5519 18.7487 0.408815 18.7487 0.408815C18.7487 0.408815 19.1583 2.01341 17.8271 3.21942Z" fill="#D4AF77"/>
<path d="M14.8375 13.9814C13.1684 13.7565 11.5095 12.7243 11.0385 10.3838C10.1988 10.3838 7.73104 10.1385 6.49203 7.62431C5.47829 8.05357 3.73752 9.37199 4.55671 13.2762L1.92508 16.0152C1.92508 16.0152 1.34141 14.2573 0 14.2982V18.2331C0 18.2331 0.573428 18.8769 2.35515 18.0082C3.04122 17.6709 3.85016 17.2723 4.56695 16.9044L5.18134 16.5876L5.9186 16.1992L6.15412 16.0868L6.52275 15.9028L6.62515 15.8517L6.68658 15.8108L8.48879 14.8808L7.84368 15.6575C7.54673 16.0152 7.61841 16.5467 8.00752 16.8022C9.10318 17.5176 11.0385 18.5703 14.8579 19.4799C14.8579 19.4799 12.5949 23.7316 19.1075 26.2969L18.5545 29.7208C18.5545 29.7208 15.2675 28.709 15.2675 31.9999H20.0086L22.6095 25.2749C22.8143 24.7537 22.6095 24.1711 22.1589 23.8645C21.524 23.4352 20.6741 22.7096 20.2236 21.6978C19.9574 21.105 19.6706 20.5326 19.3737 19.991C20.3055 19.991 20.9404 19.3573 20.8687 18.5806V8.62591C20.8687 8.08423 21.2578 7.59365 21.8005 7.53233C22.4251 7.471 22.9474 7.95136 22.9474 8.56459C22.9474 8.94274 22.7835 9.31067 22.4866 9.55596C22.0463 9.9239 21.7698 10.4656 21.7698 11.0788C21.7698 12.1826 22.6709 13.082 23.7768 13.082V8.55436C23.7768 7.4199 22.7528 6.51029 21.5855 6.70448C20.6639 6.85778 20.029 7.72651 20.029 8.65657V18.5601C20.029 18.8769 19.773 19.1325 19.4556 19.1325C19.0972 19.1427 18.7695 18.9383 18.5852 18.6317L15.8205 14.0529C15.503 14.0325 15.1651 14.0018 14.8272 13.9609L14.8375 13.9814Z" fill="#D4AF77"/>
<path d="M32.7263 26.8387V22.8119H33.4533V26.8387H32.7263ZM33.2997 26.8387V26.2971H34.4261C34.6309 26.2971 34.7948 26.2357 34.9074 26.1233C35.02 26.0109 35.0712 25.8576 35.0712 25.6532C35.0712 25.4488 35.0098 25.2852 34.8972 25.1626C34.7743 25.04 34.6104 24.9786 34.3954 24.9786H33.2997V24.437H34.3442C34.549 24.437 34.7026 24.3858 34.805 24.2939C34.9176 24.2019 34.9688 24.0588 34.9688 23.8748C34.9688 23.6909 34.9176 23.558 34.8152 23.466C34.7128 23.374 34.5592 23.3229 34.3647 23.3229H33.2997V22.7812H34.4978C34.8562 22.7812 35.1532 22.8732 35.3682 23.0572C35.5832 23.2412 35.6959 23.4865 35.6959 23.7931C35.6959 23.9873 35.6549 24.161 35.5627 24.3041C35.4706 24.4472 35.3477 24.5596 35.1941 24.6414C35.0405 24.7231 34.8664 24.7538 34.6719 24.7538L34.7026 24.6414C34.9074 24.6414 35.0917 24.6822 35.2658 24.7742C35.4399 24.8662 35.5627 24.9889 35.6651 25.1626C35.7675 25.3261 35.8085 25.5203 35.8085 25.7349C35.8085 25.9496 35.7573 26.1438 35.6549 26.3073C35.5525 26.4708 35.4091 26.5935 35.2248 26.6854C35.0405 26.7774 34.8255 26.8183 34.5695 26.8183H33.2997V26.8387Z" fill="white"/>
<path d="M41.3278 26.8899C40.7851 26.8899 40.3653 26.7366 40.0888 26.43C39.8123 26.1234 39.6689 25.6737 39.6689 25.1014V22.812H40.396V25.2036C40.396 25.5715 40.4779 25.8475 40.6417 26.0314C40.8056 26.2154 41.0411 26.3074 41.3278 26.3074C41.6145 26.3074 41.85 26.2154 42.0139 26.0314C42.1777 25.8475 42.2596 25.5817 42.2596 25.2138V22.812H42.9866V25.1116C42.9866 25.6839 42.8433 26.1234 42.5668 26.4402C42.2801 26.7469 41.8705 26.9002 41.3175 26.9002L41.3278 26.8899Z" fill="white"/>
<path d="M48.6184 26.8898C48.1064 26.8898 47.7071 26.7773 47.3999 26.5423C47.0927 26.3072 46.9186 25.9802 46.8674 25.5509H47.5637C47.5945 25.7962 47.7071 25.9904 47.8914 26.1232C48.0757 26.2561 48.3215 26.3277 48.6287 26.3277C48.8744 26.3277 49.069 26.2868 49.2021 26.1948C49.3352 26.1028 49.3967 25.9802 49.3967 25.8166C49.3967 25.6735 49.3557 25.5509 49.2738 25.4589C49.1919 25.3669 49.0485 25.2954 48.854 25.2443L48.1269 25.0297C47.7583 24.9172 47.4818 24.7742 47.3077 24.5902C47.1337 24.4062 47.0517 24.1814 47.0517 23.9054C47.0517 23.6704 47.1132 23.4762 47.2361 23.3024C47.3589 23.1287 47.5228 22.9958 47.7481 22.9038C47.9733 22.8118 48.2191 22.7607 48.516 22.7607C48.9666 22.7607 49.325 22.8732 49.5912 23.0878C49.8575 23.3024 50.011 23.5988 50.052 23.977H49.3557C49.3147 23.7521 49.2226 23.5886 49.0792 23.4864C48.9359 23.3842 48.7413 23.3229 48.4956 23.3229C48.2805 23.3229 48.1064 23.3637 47.9836 23.4557C47.8607 23.5375 47.789 23.6601 47.789 23.8134C47.789 23.9361 47.83 24.0383 47.9016 24.1303C47.9733 24.2223 48.1167 24.2938 48.3317 24.3551L49.069 24.58C49.4376 24.6924 49.7039 24.8355 49.8779 25.0194C50.0418 25.2034 50.1339 25.4385 50.1339 25.7349C50.1339 26.113 50.0008 26.4094 49.7346 26.6138C49.4683 26.8182 49.0997 26.9204 48.6287 26.9204L48.6184 26.8898Z" fill="white"/>
<path d="M54.7009 26.8388V22.812H55.428V26.8388H54.7009Z" fill="white"/>
<path d="M60.6091 26.8388V22.812H61.5102L63.4763 26.3176L63.2715 26.3687V22.812H63.978V26.8388H63.0769L61.1109 23.3333L61.3157 23.2822V26.8388H60.6091Z" fill="white"/>
<path d="M68.6267 26.8388V22.812H69.3537V26.8388H68.6267ZM68.9749 23.3844V22.812H71.4734V23.3844H68.9749ZM68.9749 25.0401V24.4779H71.3403V25.0401H68.9749ZM68.9749 26.8388V26.2665H71.5348V26.8388H68.9749Z" fill="white"/>
<path d="M78.365 26.8898C77.853 26.8898 77.4537 26.7773 77.1465 26.5423C76.8393 26.3072 76.6652 25.9802 76.614 25.5509H77.3103C77.341 25.7962 77.4537 25.9904 77.638 26.1232C77.8223 26.2561 78.0681 26.3277 78.3753 26.3277C78.621 26.3277 78.8156 26.2868 78.9487 26.1948C79.0818 26.1028 79.1432 25.9802 79.1432 25.8166C79.1432 25.6735 79.1023 25.5509 79.0204 25.4589C78.9384 25.3669 78.7951 25.2954 78.6005 25.2443L77.8735 25.0297C77.5049 24.9172 77.2284 24.7742 77.0543 24.5902C76.8802 24.4062 76.7983 24.1814 76.7983 23.9054C76.7983 23.6704 76.8598 23.4762 76.9826 23.3024C77.1055 23.1287 77.2694 22.9958 77.4946 22.9038C77.7199 22.8118 77.9657 22.7607 78.2626 22.7607C78.7132 22.7607 79.0716 22.8732 79.3378 23.0878C79.604 23.3024 79.7576 23.5988 79.7986 23.977H79.1023C79.0613 23.7521 78.9692 23.5886 78.8258 23.4864C78.6825 23.3842 78.4879 23.3229 78.2421 23.3229C78.0271 23.3229 77.853 23.3637 77.7302 23.4557C77.6073 23.5375 77.5356 23.6601 77.5356 23.8134C77.5356 23.9361 77.5766 24.0383 77.6482 24.1303C77.7199 24.2223 77.8633 24.2938 78.0783 24.3551L78.8156 24.58C79.1842 24.6924 79.4504 24.8355 79.6245 25.0194C79.7884 25.2034 79.8805 25.4385 79.8805 25.7349C79.8805 26.113 79.7474 26.4094 79.4812 26.6138C79.2149 26.8182 78.8463 26.9204 78.3753 26.9204L78.365 26.8898Z" fill="white"/>
<path d="M86.2598 26.8898C85.7478 26.8898 85.3485 26.7773 85.0413 26.5423C84.7341 26.3072 84.56 25.9802 84.5088 25.5509H85.2051C85.2358 25.7962 85.3485 25.9904 85.5328 26.1232C85.7171 26.2561 85.9628 26.3277 86.27 26.3277C86.5158 26.3277 86.7103 26.2868 86.8435 26.1948C86.9766 26.1028 87.038 25.9802 87.038 25.8166C87.038 25.6735 86.9971 25.5509 86.9151 25.4589C86.8332 25.3669 86.6899 25.2954 86.4953 25.2443L85.7683 25.0297C85.3997 24.9172 85.1232 24.7742 84.9491 24.5902C84.775 24.4062 84.6931 24.1814 84.6931 23.9054C84.6931 23.6704 84.7545 23.4762 84.8774 23.3024C85.0003 23.1287 85.1641 22.9958 85.3894 22.9038C85.6147 22.8118 85.8604 22.7607 86.1574 22.7607C86.6079 22.7607 86.9663 22.8732 87.2326 23.0878C87.4988 23.3024 87.6524 23.5988 87.6934 23.977H86.9971C86.9561 23.7521 86.8639 23.5886 86.7206 23.4864C86.5772 23.3842 86.3827 23.3229 86.1369 23.3229C85.9219 23.3229 85.7478 23.3637 85.6249 23.4557C85.5021 23.5375 85.4304 23.6601 85.4304 23.8134C85.4304 23.9361 85.4713 24.0383 85.543 24.1303C85.6147 24.2223 85.758 24.2938 85.9731 24.3551L86.7103 24.58C87.079 24.6924 87.3452 24.8355 87.5193 25.0194C87.6831 25.2034 87.7753 25.4385 87.7753 25.7349C87.7753 26.113 87.6422 26.4094 87.3759 26.6138C87.1097 26.8182 86.7411 26.9204 86.27 26.9204L86.2598 26.8898Z" fill="white"/>
<path d="M101.395 26.8388V22.812H103.207C103.504 22.812 103.76 22.8631 103.965 22.9653C104.18 23.0675 104.333 23.2106 104.456 23.3946C104.569 23.5785 104.63 23.7932 104.63 24.0487C104.63 24.3042 104.569 24.5086 104.456 24.7028C104.344 24.8867 104.18 25.0298 103.965 25.132C103.76 25.2342 103.504 25.2853 103.207 25.2853H101.958V24.713H103.166C103.402 24.713 103.576 24.6517 103.698 24.529C103.821 24.4064 103.883 24.2429 103.883 24.0385C103.883 23.8341 103.821 23.6807 103.698 23.5581C103.576 23.4355 103.391 23.3844 103.166 23.3844H102.122V26.8388H101.395Z" fill="white"/>
<path d="M108.511 26.8388L109.996 22.812H110.621L109.228 26.8388H108.511ZM109.279 25.2547H111.491V25.8372H109.279V25.2547ZM111.552 26.8388L110.16 22.812H110.825L112.31 26.8388H111.563H111.552Z" fill="white"/>
<path d="M116.733 26.8388V22.812H118.433C118.72 22.812 118.976 22.8631 119.18 22.9551C119.395 23.0573 119.559 23.1902 119.672 23.3639C119.785 23.5377 119.846 23.7421 119.846 23.9771C119.846 24.2122 119.785 24.4166 119.672 24.5904C119.559 24.7641 119.395 24.897 119.18 24.9992C118.965 25.1014 118.72 25.1423 118.433 25.1423H117.296V24.5904H118.402C118.638 24.5904 118.822 24.5393 118.945 24.4268C119.068 24.3144 119.129 24.1713 119.129 23.9771C119.129 23.7829 119.068 23.6399 118.945 23.5377C118.822 23.4355 118.638 23.3844 118.402 23.3844H117.45V26.8388H116.723H116.733ZM119.037 26.8388L117.235 24.7743H118.054L120.041 26.8388H119.027H119.037Z" fill="white"/>
<path d="M125.386 26.8388V23.3844H124.045V22.812H127.455V23.3844H126.113V26.8388H125.386Z" fill="white"/>
<path d="M132.349 26.8388V22.812H133.25L135.216 26.3176L135.011 26.3687V22.812H135.718V26.8388H134.817L132.851 23.3333L133.056 23.2822V26.8388H132.349Z" fill="white"/>
<path d="M141.299 26.8388V22.812H142.026V26.8388H141.299ZM141.647 23.3844V22.812H144.145V23.3844H141.647ZM141.647 25.0401V24.4779H144.012V25.0401H141.647ZM141.647 26.8388V26.2665H144.207V26.8388H141.647Z" fill="white"/>
<path d="M149.695 26.8388V22.812H151.395C151.682 22.812 151.938 22.8631 152.143 22.9551C152.358 23.0573 152.521 23.1902 152.634 23.3639C152.747 23.5377 152.808 23.7421 152.808 23.9771C152.808 24.2122 152.747 24.4166 152.634 24.5904C152.521 24.7641 152.358 24.897 152.143 24.9992C151.928 25.1014 151.682 25.1423 151.395 25.1423H150.259V24.5904H151.364C151.6 24.5904 151.784 24.5393 151.907 24.4268C152.03 24.3144 152.091 24.1713 152.091 23.9771C152.091 23.7829 152.03 23.6399 151.907 23.5377C151.784 23.4355 151.6 23.3844 151.364 23.3844H150.412V26.8388H149.685H149.695ZM152.009 26.8388L150.207 24.7743H151.026L153.013 26.8388H151.999H152.009Z" fill="white"/>
<path d="M159.484 26.8898C158.972 26.8898 158.573 26.7773 158.266 26.5423C157.958 26.3072 157.784 25.9802 157.733 25.5509H158.429C158.46 25.7962 158.573 25.9904 158.757 26.1232C158.941 26.2561 159.187 26.3277 159.494 26.3277C159.74 26.3277 159.935 26.2868 160.068 26.1948C160.201 26.1028 160.262 25.9802 160.262 25.8166C160.262 25.6735 160.221 25.5509 160.14 25.4589C160.058 25.3669 159.914 25.2954 159.72 25.2443L158.993 25.0297C158.624 24.9172 158.348 24.7742 158.173 24.5902C157.999 24.4062 157.917 24.1814 157.917 23.9054C157.917 23.6704 157.979 23.4762 158.102 23.3024C158.225 23.1287 158.389 22.9958 158.614 22.9038C158.839 22.8118 159.085 22.7607 159.382 22.7607C159.832 22.7607 160.191 22.8732 160.457 23.0878C160.723 23.3024 160.877 23.5988 160.918 23.977H160.221C160.18 23.7521 160.088 23.5886 159.945 23.4864C159.802 23.3842 159.607 23.3229 159.361 23.3229C159.146 23.3229 158.972 23.3637 158.849 23.4557C158.726 23.5375 158.655 23.6601 158.655 23.8134C158.655 23.9361 158.696 24.0383 158.767 24.1303C158.839 24.2223 158.982 24.2938 159.197 24.3551L159.935 24.58C160.303 24.6924 160.57 24.8355 160.744 25.0194C160.907 25.2034 161 25.4385 161 25.7349C161 26.113 160.867 26.4094 160.6 26.6138C160.334 26.8182 159.965 26.9204 159.494 26.9204L159.484 26.8898Z" fill="white"/>
<path d="M40.9591 6.62256H37.9589L32.7263 18.468V19.6842H34.8767L36.0952 16.7918H41.0308L40.1604 14.7375H36.9349L38.563 10.9049L39.4641 8.76884L41.9831 14.7375H41.9626L42.8228 16.7918L44.0413 19.6842H46.1916V18.468L40.9591 6.62256Z" fill="white"/>
<path d="M82.9323 6.62256H79.932L74.6995 18.468V19.6842H76.8498L78.0684 16.7918H83.0039L82.1336 14.7375H78.908L80.5361 10.9049L81.4372 8.76884L83.9562 14.7375H83.9358L84.7959 16.7918L86.0144 19.6842H88.1648V18.468L82.9323 6.62256Z" fill="white"/>
<path d="M155.594 6.62256H152.593L147.361 18.468V19.6842H149.511L150.73 16.7918H155.665L154.795 14.7375H151.569L153.198 10.9049L154.099 8.76884L156.618 14.7375H156.597L157.457 16.7918L158.676 19.6842H160.826V18.468L155.594 6.62256Z" fill="white"/>
<path d="M53.6562 17.5379V6.62256H51.3113V19.6842H61.9709V17.5379H53.6562Z" fill="white"/>
<path d="M67.1934 6.62256V19.6842H69.528V6.62256H67.1934Z" fill="white"/>
<path d="M103.33 6.62256V13.8995L103.524 16.3319H103.432L95.6705 6.62256H93.2437V19.6842H95.5783V12.4073L95.394 9.98506H95.4862L103.238 19.6842H105.675V6.62256H103.33Z" fill="white"/>
<path d="M122.018 6.62256V16.4239C122.018 17.354 121.547 17.8241 120.615 17.8241H115.751C114.819 17.8241 114.348 17.354 114.348 16.4239V6.62256H112.013V16.8838C112.013 17.7832 112.29 18.5089 112.833 19.0505C113.375 19.5922 114.113 19.8682 115.003 19.8682H121.362C122.253 19.8682 122.98 19.6024 123.523 19.0505C124.076 18.5089 124.352 17.7832 124.352 16.8838V6.62256H122.018Z" fill="white"/>
<path d="M139.66 14.7375C140.183 14.7069 140.654 14.574 141.063 14.3492C141.995 13.8381 142.466 13.0103 142.466 11.8452V9.60691C142.466 8.71774 142.19 7.99209 141.647 7.45041C141.094 6.89851 140.377 6.62256 139.476 6.62256H130.69V8.67685H138.729C139.66 8.67685 140.132 9.14699 140.132 10.077V11.3853C140.132 12.3153 139.66 12.7854 138.729 12.7854H130.69V19.6842H133.025V14.8295H136.865L140.603 19.6842H142.753V18.468L139.66 14.7375Z" fill="white"/>
</svg>
