<svg width="192" height="36" viewBox="0 0 192 36" fill="none" xmlns="http://www.w3.org/2000/svg">
<path d="M134.557 30.8428C134.557 31.9528 134.081 32.4681 133.13 32.4681H128.491C127.262 32.4681 126.311 31.9924 125.716 31.0013C125.241 30.2085 124.924 29.0985 124.884 27.7109L124.844 26.6802H125.558L125.597 27.7109C125.637 29.2174 126.034 30.3274 126.747 31.0013C127.262 31.477 127.857 31.6753 128.531 31.6753H132.852C133.407 31.6753 133.685 31.3185 133.685 30.6049C133.685 28.8209 133.685 27.5127 133.685 26.6406H134.557C134.557 27.4731 134.557 28.8606 134.557 30.8428ZM129.165 25.8081H128.333V24.7773H129.165V25.8081ZM130.83 25.8081H129.998V24.7773H130.83V25.8081Z" fill="#0F172A"/>
<path d="M137.53 32.4671H136.697L136.618 22.1599H137.451L137.53 32.4671Z" fill="#0F172A"/>
<path d="M141.534 31.001C141.534 32.3489 141.177 33.4589 140.464 34.3707C139.75 35.2825 138.799 35.7979 137.609 35.9168C137.53 35.7582 137.411 35.5204 137.292 35.2032C138.283 35.1636 139.116 34.7275 139.79 33.9346C140.424 33.1814 140.702 32.2696 140.702 31.1596V26.6799H141.534V31.001Z" fill="#0F172A"/>
<path d="M147.124 32.4677H145.181C144.824 32.4677 144.507 32.3092 144.19 32.0317C143.833 31.7145 143.635 31.2784 143.635 30.7234L143.595 22.1208H144.428L144.507 30.6045C144.507 31.1991 144.983 31.6749 145.419 31.6749H147.124V32.4677Z" fill="#0F172A"/>
<path d="M161.475 32.4674H160.127C159.691 32.4674 159.294 32.3088 158.977 31.9917C158.739 31.7538 158.541 31.4367 158.462 31.0799C158.303 32.071 157.55 32.7052 156.519 32.7052C155.449 32.7052 154.735 32.2295 154.339 31.2384C153.942 32.1899 153.308 32.7052 152.357 32.7052C151.405 32.7052 150.731 32.2692 150.335 31.4367L150.295 31.397V32.5467H146.807V31.7538H149.502V27.1552H150.295C150.295 27.1948 150.295 28.1066 150.295 29.9302C150.295 31.2384 150.969 31.9124 152.317 31.9124C153.031 31.9124 153.506 31.4367 153.506 30.6438C153.506 30.2077 153.506 29.0581 153.467 27.1948H154.299C154.299 27.7895 154.299 28.7013 154.299 29.9699C154.299 30.5249 154.537 31.0006 154.933 31.397C155.33 31.7538 155.806 31.952 156.361 31.952C156.717 31.952 156.995 31.8727 157.233 31.6349C157.471 31.397 157.629 31.0799 157.629 30.6438C157.629 30.2474 157.629 28.9391 157.59 26.6795H158.422C158.422 27.3931 158.422 28.5031 158.422 30.0491C158.422 30.5249 158.62 30.9609 158.977 31.2781C159.255 31.5556 159.572 31.7142 159.929 31.7142H161.395V32.4674H161.475ZM153.506 25.0541H152.634V24.0234H153.506V25.0541ZM154.339 23.508H153.506V22.4773H154.339V23.508ZM155.171 25.0541H154.299V24.0234H155.171V25.0541Z" fill="#0F172A"/>
<path d="M167.818 32.4686H166.47C165.994 32.4686 165.638 32.31 165.281 31.9532C165.003 31.6756 164.845 31.3584 164.805 31.0016C164.646 31.517 164.369 31.8739 163.933 32.1117C163.576 32.31 163.219 32.4289 162.783 32.4289H161.078V31.636H162.545C162.862 31.636 163.179 31.5567 163.417 31.3584C163.774 31.1205 163.972 30.8034 163.972 30.3672C163.972 29.2571 163.972 27.9884 163.933 26.6007H164.765C164.765 27.9884 164.765 29.0192 164.805 29.7329C164.805 30.2879 165.003 30.7637 165.32 31.1602C165.638 31.4774 165.955 31.636 166.312 31.636H167.739V32.4686H167.818ZM163.933 25.0941H163.1V24.0632H163.933V25.0941ZM165.638 25.0941H164.805V24.0632H165.638V25.0941Z" fill="#0F172A"/>
<path d="M179.195 30.6439C179.195 31.8729 178.402 32.7054 177.213 32.7054C176.142 32.7054 175.429 32.2296 175.032 31.2386C174.636 32.19 174.001 32.7054 173.05 32.7054C172.099 32.7054 171.425 32.2693 171.028 31.4368L170.989 31.3971V32.5071H167.5V31.7143H170.196V27.195H170.989C170.989 27.2346 170.989 28.1464 170.989 29.97C170.989 31.2782 171.663 31.9521 173.01 31.9521C173.724 31.9521 174.2 31.4764 174.2 30.6836C174.2 30.2475 174.2 29.0978 174.16 27.2346H174.993C174.993 27.8292 174.993 28.741 174.993 30.0096C174.993 30.5646 175.23 31.0403 175.627 31.4368C176.023 31.7936 176.499 31.9918 177.054 31.9918C177.411 31.9918 177.688 31.9125 177.926 31.6746C178.164 31.4368 178.323 31.1196 178.323 30.6836C178.323 30.2871 178.323 28.9789 178.283 26.7192H179.115C179.195 29.0978 179.195 30.4061 179.195 30.6439Z" fill="#0F172A"/>
<path d="M183 35.758H180.424L180.661 35.2822H181.375C181.137 35.0444 181.058 34.8065 181.058 34.4894C181.058 33.8154 181.494 33.3001 182.168 33.3001C182.485 33.3001 182.763 33.419 182.961 33.6569L182.763 34.0137C182.604 33.7758 182.445 33.6965 182.168 33.6965C181.692 33.6965 181.494 33.974 181.494 34.4894C181.494 34.8858 181.811 35.2426 182.366 35.2426H182.961V35.758H183ZM188.471 32.4676H187.163C186.687 32.4676 186.33 32.309 185.974 31.9522C185.736 31.6747 185.577 31.3972 185.498 31.0008C185.458 30.8422 185.419 30.644 185.339 30.4061C184.903 31.754 183.793 32.4279 181.97 32.4279H180.899V31.6747H181.851C182.525 31.6747 183.119 31.5161 183.635 31.199C184.348 30.8026 184.665 30.1286 184.665 29.1772C184.665 28.8997 184.626 26.5607 184.586 22.0811H185.419C185.419 23.7857 185.458 26.3229 185.498 29.7322C185.498 30.2872 185.696 30.7629 186.053 31.1593C186.33 31.4765 186.648 31.6351 187.004 31.6351H188.432V32.4676H188.471ZM182.525 30.3665C182.326 30.5251 182.049 30.5251 181.692 30.5251C181.692 29.1772 181.692 26.4022 181.613 22.1207H182.445L182.525 30.3665Z" fill="#0F172A"/>
<path d="M191.999 30.4459C191.999 31.0802 191.841 31.5559 191.524 31.9127C191.167 32.2695 190.691 32.4677 190.057 32.4677H188.194V31.6749H189.938C190.77 31.6749 191.167 31.2388 191.167 30.4063C191.167 28.1863 191.167 25.4112 191.127 22.1208H191.96C191.96 24.3805 191.999 27.1159 191.999 30.4459Z" fill="#0F172A"/>
<path d="M152.277 9.63282C152.277 12.2096 150.493 14.1918 147.837 14.1918C145.181 14.1918 143.358 12.17 143.358 9.55353C143.358 6.85779 145.261 4.95492 147.837 4.95492C150.414 4.95492 152.277 6.93708 152.277 9.63282ZM147.044 3.25026H144.983V1.14917H147.044V3.25026ZM150.137 9.63282C150.137 8.04709 149.225 6.85779 147.758 6.85779C146.371 6.85779 145.538 8.00744 145.538 9.55353C145.538 11.1393 146.529 12.3286 147.917 12.3286C149.304 12.3286 150.137 11.1789 150.137 9.63282ZM150.612 3.25026H148.551V1.14917H150.612V3.25026Z" fill="#0F172A"/>
<path d="M162.902 14.2314H153.942V12.0907H160.761C160.761 9.63278 159.81 8.16598 157.907 7.76955C157.312 7.65062 156.678 7.61097 156.004 7.61097V5.66846C157.035 5.66846 157.708 5.66846 157.986 5.7081C158.263 5.7081 158.62 5.78739 159.136 5.9856C161.673 6.81811 162.941 8.87956 162.941 12.0907V14.2314H162.902Z" fill="#0F172A"/>
<path d="M180.9 14.2316H167.976C166.946 14.2316 166.193 13.9144 165.637 13.2405C165.122 12.6459 164.884 11.8134 164.884 10.7826V2.02148H166.985V9.91048C166.985 10.8223 167.184 11.4566 167.58 11.7341C167.858 11.9323 168.413 12.0512 169.205 12.0512H180.9V14.2316Z" fill="#0F172A"/>
<path d="M182.248 18.3541H180.186V16.253H182.248V18.3541ZM185.855 10.7823C185.855 13.0816 184.785 14.1916 183.12 14.1916H180.9V12.0509H182.684C182.961 12.0509 183.397 11.8526 183.635 11.4166C183.715 11.1787 183.794 10.7426 183.794 10.0687V5.62866H185.895V10.7823H185.855ZM185.816 18.3541H183.754V16.253H185.816V18.3541Z" fill="#0F172A"/>
<path d="M192 5.62866V12.5266C192 15.9359 190.494 17.3234 187.243 17.3234V15.4998C188.987 15.4998 189.859 14.6277 189.859 12.8041V5.62866H192Z" fill="#0F172A"/>
<path d="M4.55878 2.29907C7.29416 2.29907 8.64203 3.8848 8.64203 5.82732C8.64203 7.21483 7.88881 8.52306 6.18415 9.03842L8.76096 13.4388H5.70844L3.40913 9.23663H2.77484V13.4388H0.0791016V2.29907H4.55878ZM4.40021 4.55873H2.7352V7.33376H4.40021C5.43093 7.33376 5.90665 6.8184 5.90665 5.94625C5.90665 5.11374 5.43093 4.55873 4.40021 4.55873Z" fill="#0F172A"/>
<path d="M10.1091 2.21997C10.1091 1.38747 10.7434 0.753174 11.7345 0.753174C12.6859 0.753174 13.3202 1.38747 13.3202 2.21997C13.3202 3.01284 12.6859 3.68677 11.7345 3.68677C10.7434 3.68677 10.1091 3.01284 10.1091 2.21997ZM10.347 4.59856H13.0427V13.4786H10.347V4.59856Z" fill="#0F172A"/>
<path d="M21.1298 4.59814H24.0634L18.5134 17.6804H15.6194L17.6412 13.1611L14.0337 4.59814H17.0862L19.1477 10.1482L21.1298 4.59814Z" fill="#0F172A"/>
<path d="M28.4243 4.47949C29.7326 4.47949 30.684 5.07414 31.1597 5.867V4.59842H33.8555V13.4785H31.1597V12.2099C30.684 13.0028 29.7326 13.5974 28.4243 13.5974C26.2836 13.5974 24.5393 11.8135 24.5393 9.03846C24.5393 6.22379 26.244 4.47949 28.4243 4.47949ZM29.2172 6.81844C28.1865 6.81844 27.2747 7.57166 27.2747 8.99882C27.2747 10.426 28.1865 11.2188 29.2172 11.2188C30.2479 11.2188 31.1597 10.426 31.1597 9.03846C31.1597 7.65095 30.2479 6.81844 29.2172 6.81844Z" fill="#0F172A"/>
<path d="M39.2069 4.47913C40.3962 4.47913 41.3873 5.03413 41.9423 5.82699V1.7041H44.638V13.4385H41.9423V12.1699C41.4666 12.9628 40.5151 13.5574 39.2069 13.5574C37.0265 13.5574 35.2822 11.7735 35.2822 8.99845C35.3219 6.22343 37.0265 4.47913 39.2069 4.47913ZM39.9998 6.81807C38.969 6.81807 38.0573 7.57129 38.0573 8.99845C38.0573 10.4256 38.969 11.2185 39.9998 11.2185C41.0305 11.2185 41.9423 10.4256 41.9423 9.03809C41.9423 7.65058 41.0305 6.81807 39.9998 6.81807Z" fill="#0F172A"/>
<path d="M49.9898 4.47949C51.298 4.47949 52.2494 5.07414 52.7252 5.867V4.59842H55.4209V13.4785H52.7252V12.2099C52.2494 13.0028 51.298 13.5974 49.9898 13.5974C47.849 13.5974 46.1047 11.8135 46.1047 9.03846C46.1047 6.22379 47.8094 4.47949 49.9898 4.47949ZM50.7826 6.81844C49.7519 6.81844 48.8401 7.57166 48.8401 8.99882C48.8401 10.426 49.7519 11.2188 50.7826 11.2188C51.8134 11.2188 52.7252 10.426 52.7252 9.03846C52.7252 7.65095 51.8134 6.81844 50.7826 6.81844Z" fill="#0F172A"/>
<path d="M5.43112 20.4954C7.889 20.4954 9.75223 21.7243 10.5451 23.865H9.23687C8.60258 22.3982 7.33399 21.4864 5.43112 21.4864C3.01288 21.4864 1.14965 23.2704 1.14965 26.204C1.14965 29.0979 3.01288 30.8819 5.43112 30.8819C7.33399 30.8819 8.64222 29.9701 9.23687 28.5033H10.5451C9.75223 30.6044 7.92864 31.8333 5.43112 31.8333C2.33895 31.8333 0 29.534 0 26.1643C0 22.7947 2.33895 20.4954 5.43112 20.4954Z" fill="#0F172A"/>
<path d="M16.5313 31.8329C14.0734 31.8329 12.2102 30.1282 12.2102 27.3532C12.2102 24.5782 14.1131 22.8735 16.5313 22.8735C18.9892 22.8735 20.8524 24.5782 20.8524 27.3532C20.8921 30.1282 18.9892 31.8329 16.5313 31.8329ZM16.5313 30.8815C18.1567 30.8815 19.7424 29.7715 19.7424 27.3929C19.7424 25.0143 18.1963 23.9043 16.5313 23.9043C14.8663 23.9043 13.3202 25.0143 13.3202 27.3929C13.3599 29.7715 14.9059 30.8815 16.5313 30.8815Z" fill="#0F172A"/>
<path d="M29.4152 26.7592C29.4152 24.8563 28.3845 23.8653 26.7988 23.8653C25.1734 23.8653 24.0634 24.896 24.0634 26.9971V31.7146H22.9534V23.0724H24.0634V24.5392C24.6184 23.4688 25.7284 22.9138 27.0366 22.9138C29.0188 22.9138 30.5649 24.1031 30.5649 26.6799V31.7543H29.4549V26.7592H29.4152Z" fill="#0F172A"/>
<path d="M35.9564 31.8329C33.9742 31.8329 32.5867 30.8418 32.4678 29.2561H33.6174C33.6967 30.2075 34.5292 30.8815 35.9564 30.8815C37.1853 30.8815 37.8989 30.2075 37.8989 29.375C37.8989 27.2343 32.7056 28.5029 32.7056 25.2125C32.7056 23.9439 33.9346 22.8735 35.7582 22.8735C37.6214 22.8735 38.8503 23.8646 38.9296 25.5296H37.8196C37.7403 24.5782 37.0267 23.825 35.7185 23.825C34.5689 23.825 33.8156 24.4593 33.8156 25.2125C33.8156 27.5514 38.9296 26.3225 39.0089 29.375C39.0089 30.8022 37.78 31.8329 35.9564 31.8329Z" fill="#0F172A"/>
<path d="M48.6025 31.7145H47.4924V30.208C46.9771 31.3181 45.8274 31.8731 44.5192 31.8731C42.5371 31.8731 40.991 30.6838 40.991 28.107V23.0723H42.101V27.988C42.101 29.8909 43.1317 30.882 44.7174 30.882C46.3428 30.882 47.4528 29.8513 47.4528 27.7502V23.0723H48.5628V31.7145H48.6025Z" fill="#0F172A"/>
<path d="M51.1396 19.98H52.2497V31.7144H51.1396V19.98Z" fill="#0F172A"/>
<path d="M55.1041 23.9839H53.9148V23.0324H55.1041V20.8521H56.2141V23.0324H58.5927V23.9839H56.2141V29.3753C56.2141 30.4457 56.5709 30.7628 57.562 30.7628H58.5927V31.7143H57.4034C55.897 31.7143 55.1041 31.08 55.1041 29.3753V23.9839Z" fill="#0F172A"/>
<path d="M60.1782 20.5748C60.1782 20.0991 60.535 19.782 60.9711 19.782C61.4072 19.782 61.764 20.0991 61.764 20.5748C61.764 21.0506 61.4072 21.4074 60.9711 21.4074C60.535 21.4074 60.1782 21.0506 60.1782 20.5748ZM60.4161 23.0724H61.5261V31.7542H60.4161V23.0724Z" fill="#0F172A"/>
<path d="M70.5651 26.7592C70.5651 24.8563 69.5344 23.8653 67.9487 23.8653C66.3233 23.8653 65.2133 24.896 65.2133 26.9971V31.7146H64.1033V23.0724H65.2133V24.5392C65.7683 23.4688 66.8783 22.9138 68.1865 22.9138C70.1687 22.9138 71.7148 24.1031 71.7148 26.6799V31.7543H70.6048V26.7592H70.5651Z" fill="#0F172A"/>
<path d="M77.7402 22.9138C79.4448 22.9138 80.6738 23.8256 81.1891 24.9356V23.0327H82.2991V31.9525C82.2991 34.3707 80.6341 35.9961 78.2555 35.9961C76.0355 35.9961 74.4498 34.8464 74.093 33.0625H75.203C75.5598 34.2518 76.6698 35.0446 78.2555 35.0446C79.9205 35.0446 81.1891 33.9346 81.1891 31.9921V29.8514C80.6738 30.9614 79.4845 31.9128 77.7402 31.9128C75.3616 31.9128 73.5776 30.1685 73.5776 27.4331C73.6173 24.6581 75.3616 22.9138 77.7402 22.9138ZM77.9384 23.9049C76.1148 23.9049 74.7273 25.1735 74.7273 27.3935C74.7273 29.5739 76.1148 30.9217 77.9384 30.9217C79.7223 30.9217 81.1495 29.5739 81.1495 27.4331C81.1891 25.2131 79.7223 23.9049 77.9384 23.9049Z" fill="#0F172A"/>
<path d="M104.781 1.58545C96.2575 1.58545 89.3596 8.48337 89.3596 17.0067C89.3596 25.5299 96.2575 32.4279 104.781 32.4279C113.304 32.4279 120.202 25.5299 120.202 17.0067C120.202 8.48337 113.304 1.58545 104.781 1.58545ZM104.781 28.7807C98.2793 28.7807 93.0464 23.5081 93.0464 17.0463C93.0464 10.5845 98.319 5.31191 104.781 5.31191C111.243 5.31191 116.515 10.5845 116.515 17.0463C116.515 23.5081 111.282 28.7807 104.781 28.7807Z" stroke="#0F172A" stroke-miterlimit="10"/>
<path d="M99.6279 9.51416C98.1213 9.51416 96.8525 10.7432 96.8525 12.2895C96.8525 13.7961 98.0816 15.0649 99.6279 15.0649C101.135 15.0649 102.403 13.8358 102.403 12.2895C102.364 10.7432 101.135 9.51416 99.6279 9.51416Z" fill="url(#paint0_radial_286_469)"/>
<g opacity="0.5">
<path d="M99.6279 9.51416C98.0816 9.51416 96.8525 10.7432 96.8525 12.2895C96.8525 13.8358 98.0816 15.0649 99.6279 15.0649C101.174 15.0649 102.403 13.8358 102.403 12.2895C102.403 10.7432 101.135 9.51416 99.6279 9.51416Z" fill="url(#paint1_radial_286_469)"/>
</g>
<path d="M89.7168 0C88.1705 0 86.9414 1.22908 86.9414 2.77535C86.9414 4.32161 88.1705 5.5507 89.7168 5.5507C91.263 5.5507 92.4921 4.32161 92.4921 2.77535C92.4921 1.22908 91.2234 0 89.7168 0Z" fill="url(#paint2_radial_286_469)"/>
<defs>
<radialGradient id="paint0_radial_286_469" cx="0" cy="0" r="1" gradientUnits="userSpaceOnUse" gradientTransform="translate(100.679 13.0319) rotate(-90) scale(3.1658)">
<stop stop-color="#353371"/>
<stop offset="1" stop-color="#03004D"/>
</radialGradient>
<radialGradient id="paint1_radial_286_469" cx="0" cy="0" r="1" gradientUnits="userSpaceOnUse" gradientTransform="translate(99.6214 12.2846) rotate(-90) scale(2.77531)">
<stop stop-color="#E6E7E8"/>
<stop offset="1" stop-color="#353371"/>
</radialGradient>
<radialGradient id="paint2_radial_286_469" cx="0" cy="0" r="1" gradientUnits="userSpaceOnUse" gradientTransform="translate(90.7738 3.52164) rotate(-90) scale(3.18309)">
<stop stop-color="#F0484E"/>
<stop offset="0.2951" stop-color="#EB1A22"/>
<stop offset="1" stop-color="#BF141A"/>
</radialGradient>
</defs>
</svg>
